<?xml version="1.0" encoding="UTF-8"?>
<svg width="60px" height="50px" viewBox="0 0 60 50" version="1.1" xmlns="http://www.w3.org/2000/svg" xmlns:xlink="http://www.w3.org/1999/xlink" xmlns:sketch="http://www.bohemiancoding.com/sketch/ns">
    <!-- Generator: Sketch 3.4.2 (15855) - http://www.bohemiancoding.com/sketch -->
    <title>noun_679189_cc</title>
    <desc>Created with Sketch.</desc>
    <defs></defs>
    <g id="Page-1" stroke="none" stroke-width="1" fill="none" fill-rule="evenodd" sketch:type="MSPage">
        <g id="noun_679189_cc" sketch:type="MSLayerGroup" fill="#ffffff">
            <path d="M42.143,0.096 C37.636,0.096 33.291,1.816 30,4.809 C26.709,1.816 22.364,0.096 17.857,0.096 C8.011,0.096 0,8.106 0,17.953 C0,23.284 2.412,28.169 6.977,32.082 C12.163,36.529 26.299,48.545 26.299,48.545 C27.331,49.422 28.646,49.905 30,49.905 C31.354,49.905 32.669,49.422 33.7,48.545 C33.7,48.545 47.841,36.528 53.026,32.08 C57.588,28.167 60,23.282 60,17.953 C60,8.106 51.989,0.096 42.143,0.096 L42.143,0.096 Z" id="Shape" sketch:type="MSShapeGroup"></path>
        </g>
    </g>
</svg>
